<svg width="400" height="400" viewBox="0 0 400 400" fill="none" xmlns="http://www.w3.org/2000/svg">
<path d="M400 200C400 310.457 310.457 400 200 400C89.5431 400 0 310.457 0 200C0 89.5431 89.5431 0 200 0C310.457 0 400 89.5431 400 200Z" fill="#F26F6F"/>
<path d="M366.387 198.319C366.387 291.14 291.14 366.387 198.319 366.387C105.498 366.387 30.2521 291.14 30.2521 198.319C30.2521 105.498 105.498 30.2521 198.319 30.2521C291.14 30.2521 366.387 105.498 366.387 198.319Z" fill="#FFFBFB"/>
<path d="M322.773 356.114C314.255 368.279 297.487 371.236 285.322 362.717L122.868 248.966C110.702 240.448 107.746 223.68 116.264 211.515L133.616 186.733C142.135 174.568 158.902 171.611 171.068 180.13L333.521 293.881C345.687 302.399 348.643 319.167 340.125 331.333L322.773 356.114Z" fill="#F26F6F"/>
<path d="M107.563 60.5042C107.563 45.6528 119.602 33.6134 134.454 33.6134H164.706C179.557 33.6134 191.597 45.6529 191.597 60.5042V342.857C191.597 357.709 179.557 369.748 164.706 369.748H134.454C119.602 369.748 107.563 357.709 107.563 342.857V60.5042Z" fill="#F26F6F"/>
<path d="M131.092 60.5042C131.092 51.2221 138.617 43.6975 147.899 43.6975C157.181 43.6975 164.706 51.2221 164.706 60.5042V336.134C164.706 345.417 157.181 352.941 147.899 352.941C138.617 352.941 131.092 345.417 131.092 336.134V60.5042Z" fill="white"/>
<path d="M295.196 320.243C289.872 327.847 279.393 329.695 271.789 324.371L144.86 235.494C137.256 230.17 135.408 219.69 140.732 212.087C146.056 204.483 156.536 202.635 164.14 207.959L291.069 296.836C298.673 302.16 300.52 312.64 295.196 320.243Z" fill="white"/>
</svg>
