<svg width="299" height="216" viewBox="0 0 299 216" fill="none" xmlns="http://www.w3.org/2000/svg">
<rect width="299" height="216" fill="white"/>
<path d="M41.4219 42.2559L46.6602 29.4062H50.2988L43.0215 45.4551V55H39.8047V45.4551L32.5273 29.4062H36.1836L41.4219 42.2559ZM51.3887 44.6113C51.3887 41.8457 52.0566 39.6602 53.3926 38.0547C54.7402 36.4375 56.5156 35.6289 58.7188 35.6289C60.9219 35.6289 62.6914 36.4141 64.0273 37.9844C65.375 39.5547 66.0664 41.6934 66.1016 44.4004V46.4043C66.1016 49.1582 65.4336 51.3379 64.0977 52.9434C62.7617 54.5488 60.9805 55.3516 58.7539 55.3516C56.5508 55.3516 54.7812 54.5723 53.4453 53.0137C52.1211 51.4551 51.4355 49.3457 51.3887 46.6855V44.6113ZM54.5 46.4043C54.5 48.3613 54.8809 49.9023 55.6426 51.0273C56.416 52.1406 57.4531 52.6973 58.7539 52.6973C61.4961 52.6973 62.9082 50.7168 62.9902 46.7559V44.6113C62.9902 42.666 62.6035 41.1309 61.8301 40.0059C61.0566 38.8691 60.0195 38.3008 58.7188 38.3008C57.4414 38.3008 56.416 38.8691 55.6426 40.0059C54.8809 41.1309 54.5 42.6602 54.5 44.5938V46.4043ZM79.8125 53.3301C78.7812 54.6777 77.2754 55.3516 75.2949 55.3516C73.5723 55.3516 72.2715 54.7598 71.3926 53.5762C70.5137 52.3809 70.0684 50.6465 70.0566 48.373V35.9805H73.1504V48.1445C73.1504 51.1094 74.041 52.5918 75.8223 52.5918C77.709 52.5918 79.0098 51.748 79.7246 50.0605V35.9805H82.8359V55H79.8828L79.8125 53.3301ZM95.3691 38.8984C94.9355 38.8164 94.4668 38.7754 93.9629 38.7754C92.3691 38.7754 91.2559 39.6484 90.623 41.3945V55H87.5117V35.9805H90.5352L90.5879 37.9141C91.4199 36.3906 92.5977 35.6289 94.1211 35.6289C94.6133 35.6289 95.0234 35.7109 95.3516 35.875L95.3691 38.8984ZM50.8086 88.8789C50.668 91.6211 49.8945 93.7188 48.4883 95.1719C47.0938 96.625 45.1191 97.3516 42.5645 97.3516C39.998 97.3516 37.959 96.3789 36.4473 94.4336C34.9355 92.4766 34.1797 89.8281 34.1797 86.4883V81.8477C34.1797 78.5195 34.9531 75.8887 36.5 73.9551C38.0586 72.0215 40.1797 71.0547 42.8633 71.0547C45.3359 71.0547 47.2461 71.7988 48.5938 73.2871C49.9531 74.7637 50.6914 76.8789 50.8086 79.6328H47.5566C47.416 77.5469 46.9766 76.0586 46.2383 75.168C45.5 74.2773 44.375 73.832 42.8633 73.832C41.1172 73.832 39.7754 74.5176 38.8379 75.8887C37.9004 77.248 37.4316 79.2461 37.4316 81.8828V86.5762C37.4316 89.166 37.8652 91.1523 38.7324 92.5352C39.6113 93.918 40.8887 94.6094 42.5645 94.6094C44.2402 94.6094 45.4473 94.1934 46.1855 93.3613C46.9238 92.5293 47.3809 91.0352 47.5566 88.8789H50.8086ZM54.0957 86.6113C54.0957 83.8457 54.7637 81.6602 56.0996 80.0547C57.4473 78.4375 59.2227 77.6289 61.4258 77.6289C63.6289 77.6289 65.3984 78.4141 66.7344 79.9844C68.082 81.5547 68.7734 83.6934 68.8086 86.4004V88.4043C68.8086 91.1582 68.1406 93.3379 66.8047 94.9434C65.4688 96.5488 63.6875 97.3516 61.4609 97.3516C59.2578 97.3516 57.4883 96.5723 56.1523 95.0137C54.8281 93.4551 54.1426 91.3457 54.0957 88.6855V86.6113ZM57.207 88.4043C57.207 90.3613 57.5879 91.9023 58.3496 93.0273C59.123 94.1406 60.1602 94.6973 61.4609 94.6973C64.2031 94.6973 65.6152 92.7168 65.6973 88.7559V86.6113C65.6973 84.666 65.3105 83.1309 64.5371 82.0059C63.7637 80.8691 62.7266 80.3008 61.4258 80.3008C60.1484 80.3008 59.123 80.8691 58.3496 82.0059C57.5879 83.1309 57.207 84.6602 57.207 86.5938V88.4043ZM75.752 77.9805L75.8223 79.7383C76.9824 78.332 78.5117 77.6289 80.4102 77.6289C82.5312 77.6289 84.0137 78.5488 84.8574 80.3887C86.0527 78.5488 87.7168 77.6289 89.8496 77.6289C93.3535 77.6289 95.1465 79.8145 95.2285 84.1855V97H92.1348V84.4844C92.1348 83.1016 91.8887 82.0762 91.3965 81.4082C90.9043 80.7285 90.0723 80.3887 88.9004 80.3887C87.9629 80.3887 87.2012 80.752 86.6152 81.4785C86.0293 82.2051 85.6895 83.1309 85.5957 84.2559V97H82.4668V84.3438C82.4316 81.707 81.3594 80.3887 79.25 80.3887C77.6797 80.3887 76.5723 81.1738 75.9277 82.7441V97H72.834V77.9805H75.752ZM113.668 88.4043C113.668 91.416 113.123 93.6602 112.033 95.1367C110.955 96.6133 109.426 97.3516 107.445 97.3516C105.535 97.3516 104.064 96.6309 103.033 95.1895V104.312H99.9395V77.9805H102.752L102.91 80.0898C103.953 78.4492 105.447 77.6289 107.393 77.6289C109.479 77.6289 111.037 78.3555 112.068 79.8086C113.1 81.2617 113.633 83.4355 113.668 86.3301V88.4043ZM110.574 86.6289C110.574 84.4961 110.246 82.9258 109.59 81.918C108.934 80.8984 107.879 80.3887 106.426 80.3887C104.938 80.3887 103.807 81.1328 103.033 82.6211V92.5176C103.795 93.9707 104.938 94.6973 106.461 94.6973C107.867 94.6973 108.898 94.1934 109.555 93.1855C110.223 92.166 110.562 90.6133 110.574 88.5273V86.6289ZM117.025 86.6113C117.025 83.8457 117.693 81.6602 119.029 80.0547C120.377 78.4375 122.152 77.6289 124.355 77.6289C126.559 77.6289 128.328 78.4141 129.664 79.9844C131.012 81.5547 131.703 83.6934 131.738 86.4004V88.4043C131.738 91.1582 131.07 93.3379 129.734 94.9434C128.398 96.5488 126.617 97.3516 124.391 97.3516C122.188 97.3516 120.418 96.5723 119.082 95.0137C117.758 93.4551 117.072 91.3457 117.025 88.6855V86.6113ZM120.137 88.4043C120.137 90.3613 120.518 91.9023 121.279 93.0273C122.053 94.1406 123.09 94.6973 124.391 94.6973C127.133 94.6973 128.545 92.7168 128.627 88.7559V86.6113C128.627 84.666 128.24 83.1309 127.467 82.0059C126.693 80.8691 125.656 80.3008 124.355 80.3008C123.078 80.3008 122.053 80.8691 121.279 82.0059C120.518 83.1309 120.137 84.6602 120.137 86.5938V88.4043ZM138.682 77.9805L138.77 80.0371C139.977 78.4316 141.518 77.6289 143.393 77.6289C146.756 77.6289 148.461 79.873 148.508 84.3613V97H145.414V84.502C145.414 83.0137 145.162 81.959 144.658 81.3379C144.166 80.7051 143.422 80.3887 142.426 80.3887C141.652 80.3887 140.955 80.6465 140.334 81.1621C139.725 81.6777 139.232 82.3516 138.857 83.1836V97H135.746V77.9805H138.682ZM159.986 97.3516C157.619 97.3516 155.803 96.6484 154.537 95.2422C153.271 93.8242 152.627 91.75 152.604 89.0195V86.7168C152.604 83.8809 153.219 81.6602 154.449 80.0547C155.691 78.4375 157.42 77.6289 159.635 77.6289C161.861 77.6289 163.525 78.3379 164.627 79.7559C165.729 81.1738 166.291 83.3828 166.314 86.3828V88.4219H155.697V88.8613C155.697 90.9004 156.078 92.3828 156.84 93.3086C157.613 94.2344 158.721 94.6973 160.162 94.6973C161.076 94.6973 161.879 94.5273 162.57 94.1875C163.273 93.8359 163.93 93.2852 164.539 92.5352L166.156 94.5039C164.809 96.4023 162.752 97.3516 159.986 97.3516ZM159.635 80.3008C158.346 80.3008 157.391 80.7461 156.77 81.6367C156.148 82.5156 155.797 83.8867 155.715 85.75H163.203V85.3281C163.121 83.5234 162.793 82.2344 162.219 81.4609C161.656 80.6875 160.795 80.3008 159.635 80.3008ZM172.994 77.9805L173.082 80.0371C174.289 78.4316 175.83 77.6289 177.705 77.6289C181.068 77.6289 182.773 79.873 182.82 84.3613V97H179.727V84.502C179.727 83.0137 179.475 81.959 178.971 81.3379C178.479 80.7051 177.734 80.3887 176.738 80.3887C175.965 80.3887 175.268 80.6465 174.646 81.1621C174.037 81.6777 173.545 82.3516 173.17 83.1836V97H170.059V77.9805H172.994ZM191.574 73.375V77.9805H194.439V80.4941H191.574V92.2891C191.574 93.0391 191.697 93.6074 191.943 93.9941C192.189 94.3809 192.611 94.5742 193.209 94.5742C193.619 94.5742 194.035 94.5039 194.457 94.3633L194.422 97C193.719 97.2344 192.998 97.3516 192.26 97.3516C191.029 97.3516 190.092 96.9121 189.447 96.0332C188.803 95.1543 188.48 93.9121 188.48 92.3066V80.4941H185.58V77.9805H188.48V73.375H191.574ZM38.1172 139H34.9004V113.406H38.1172V139ZM46.2559 119.98L46.3262 121.738C47.4863 120.332 49.0156 119.629 50.9141 119.629C53.0352 119.629 54.5176 120.549 55.3613 122.389C56.5566 120.549 58.2207 119.629 60.3535 119.629C63.8574 119.629 65.6504 121.814 65.7324 126.186V139H62.6387V126.484C62.6387 125.102 62.3926 124.076 61.9004 123.408C61.4082 122.729 60.5762 122.389 59.4043 122.389C58.4668 122.389 57.7051 122.752 57.1191 123.479C56.5332 124.205 56.1934 125.131 56.0996 126.256V139H52.9707V126.344C52.9355 123.707 51.8633 122.389 49.7539 122.389C48.1836 122.389 47.0762 123.174 46.4316 124.744V139H43.3379V119.98H46.2559ZM80.2168 139C80.0293 138.59 79.8945 137.898 79.8125 136.926C78.7109 138.543 77.3047 139.352 75.5938 139.352C73.8711 139.352 72.5234 138.871 71.5508 137.91C70.5898 136.938 70.1094 135.572 70.1094 133.814C70.1094 131.881 70.7656 130.346 72.0781 129.209C73.3906 128.072 75.1895 127.492 77.4746 127.469H79.7598V125.447C79.7598 124.311 79.5078 123.502 79.0039 123.021C78.5 122.541 77.7324 122.301 76.7012 122.301C75.7637 122.301 75.002 122.582 74.416 123.145C73.8301 123.695 73.5371 124.398 73.5371 125.254H70.4258C70.4258 124.281 70.7129 123.355 71.2871 122.477C71.8613 121.586 72.6348 120.889 73.6074 120.385C74.5801 119.881 75.6641 119.629 76.8594 119.629C78.8047 119.629 80.2812 120.115 81.2891 121.088C82.3086 122.049 82.8301 123.455 82.8535 125.307V134.904C82.8652 136.369 83.0645 137.641 83.4512 138.719V139H80.2168ZM76.0684 136.521C76.8301 136.521 77.5566 136.311 78.248 135.889C78.9395 135.467 79.4434 134.939 79.7598 134.307V129.771H78.002C76.5254 129.795 75.3594 130.129 74.5039 130.773C73.6484 131.406 73.2207 132.297 73.2207 133.445C73.2207 134.523 73.4375 135.309 73.8711 135.801C74.3047 136.281 75.0371 136.521 76.0684 136.521ZM87.0723 128.629C87.0723 125.664 87.6113 123.426 88.6895 121.914C89.7676 120.391 91.3438 119.629 93.418 119.629C95.3516 119.629 96.8223 120.455 97.8301 122.107L97.9883 119.98H100.801V139.176C100.801 141.531 100.197 143.336 98.9902 144.59C97.7832 145.855 96.1016 146.488 93.9453 146.488C93.0078 146.488 91.9531 146.254 90.7812 145.785C89.6211 145.328 88.748 144.76 88.1621 144.08L89.4277 141.936C90.7168 143.201 92.1406 143.834 93.6992 143.834C96.2891 143.834 97.6191 142.422 97.6895 139.598V137.119C96.6816 138.607 95.252 139.352 93.4004 139.352C91.4316 139.352 89.8965 138.613 88.7949 137.137C87.6934 135.648 87.1191 133.516 87.0723 130.738V128.629ZM90.1836 130.404C90.1836 132.537 90.4941 134.107 91.1152 135.115C91.748 136.111 92.7793 136.609 94.209 136.609C95.7559 136.609 96.916 135.818 97.6895 134.236V124.727C96.8809 123.168 95.7324 122.389 94.2441 122.389C92.8145 122.389 91.7832 122.893 91.1504 123.9C90.5176 124.896 90.1953 126.432 90.1836 128.506V130.404ZM112.244 139.352C109.877 139.352 108.061 138.648 106.795 137.242C105.529 135.824 104.885 133.75 104.861 131.02V128.717C104.861 125.881 105.477 123.66 106.707 122.055C107.949 120.438 109.678 119.629 111.893 119.629C114.119 119.629 115.783 120.338 116.885 121.756C117.986 123.174 118.549 125.383 118.572 128.383V130.422H107.955V130.861C107.955 132.9 108.336 134.383 109.098 135.309C109.871 136.234 110.979 136.697 112.42 136.697C113.334 136.697 114.137 136.527 114.828 136.188C115.531 135.836 116.188 135.285 116.797 134.535L118.414 136.504C117.066 138.402 115.01 139.352 112.244 139.352ZM111.893 122.301C110.604 122.301 109.648 122.746 109.027 123.637C108.406 124.516 108.055 125.887 107.973 127.75H115.461V127.328C115.379 125.523 115.051 124.234 114.477 123.461C113.914 122.688 113.053 122.301 111.893 122.301Z" fill="#505F79"/>
</svg>
